<svg xmlns="http://www.w3.org/2000/svg" width="900" height="420" viewBox="0 0 900 420">
<rect width="100%" height="100%" fill="#ffffff"/>
<text x="450.0" y="30" text-anchor="middle" font-family="Arial" font-size="22">RGB channel histograms</text>
<line x1="54" y1="366" x2="846" y2="366" stroke="#334155"/>
<line x1="54" y1="54" x2="54" y2="366" stroke="#334155"/>
<text x="450.0" y="408" text-anchor="middle" font-family="Arial" font-size="14">intensity (0–255)</text>
<polyline fill="none" stroke="#ef4444" stroke-width="2" points="54.0,365.6 57.1,349.2 60.2,271.6 63.3,193.1 66.4,203.1 69.5,258.9 72.6,298.8 75.7,318.4 78.8,329.7 82.0,335.1 85.1,339.3 88.2,343.3 91.3,345.5 94.4,348.6 97.5,351.5 100.6,353.8 103.7,353.9 106.8,355.1 109.9,354.6 113.0,355.0 116.1,353.4 119.2,353.4 122.3,351.2 125.4,351.2 128.5,350.2 131.6,349.3 134.8,349.0 137.9,350.1 141.0,348.5 144.1,349.3 147.2,348.9 150.3,348.7 153.4,352.6 156.5,350.6 159.6,354.2 162.7,355.4 165.8,356.1 168.9,358.0 172.0,359.0 175.1,359.2 178.2,360.8 181.3,360.8 184.4,361.1 187.6,361.7 190.7,362.4 193.8,362.7 196.9,362.1 200.0,361.6 203.1,360.7 206.2,360.3 209.3,361.2 212.4,360.3 215.5,360.6 218.6,360.6 221.7,360.6 224.8,360.7 227.9,360.3 231.0,360.1 234.1,359.7 237.2,360.2 240.4,360.4 243.5,361.5 246.6,361.0 249.7,361.4 252.8,361.1 255.9,360.8 259.0,361.3 262.1,361.8 265.2,362.0 268.3,361.0 271.4,362.1 274.5,361.6 277.6,361.4 280.7,361.4 283.8,361.2 286.9,361.0 290.0,361.0 293.2,360.9 296.3,361.4 299.4,361.2 302.5,361.0 305.6,361.3 308.7,360.4 311.8,361.0 314.9,360.0 318.0,359.3 321.1,359.2 324.2,359.8 327.3,358.6 330.4,358.2 333.5,358.1 336.6,356.5 339.7,354.9 342.8,352.7 346.0,348.6 349.1,345.1 352.2,339.9 355.3,331.5 358.4,325.0 361.5,319.7 364.6,318.1 367.7,316.8 370.8,320.7 373.9,329.2 377.0,338.4 380.1,344.2 383.2,351.9 386.3,356.8 389.4,359.2 392.5,360.6 395.6,361.2 398.8,361.0 401.9,361.0 405.0,360.9 408.1,360.8 411.2,360.4 414.3,360.9 417.4,359.7 420.5,359.6 423.6,359.2 426.7,359.2 429.8,358.3 432.9,358.5 436.0,358.8 439.1,358.4 442.2,356.8 445.3,358.3 448.4,357.7 451.6,358.0 454.7,358.6 457.8,356.9 460.9,358.1 464.0,357.7 467.1,358.4 470.2,359.2 473.3,358.3 476.4,358.5 479.5,358.1 482.6,358.2 485.7,358.3 488.8,357.8 491.9,358.4 495.0,357.7 498.1,358.4 501.2,357.4 504.4,358.8 507.5,357.6 510.6,357.3 513.7,357.4 516.8,358.8 519.9,357.7 523.0,356.9 526.1,356.3 529.2,355.4 532.3,356.5 535.4,355.5 538.5,355.8 541.6,354.1 544.7,353.9 547.8,353.5 550.9,353.2 554.0,353.0 557.2,354.2 560.3,353.1 563.4,350.9 566.5,350.7 569.6,349.0 572.7,348.5 575.8,347.8 578.9,346.7 582.0,343.9 585.1,342.4 588.2,340.0 591.3,339.2 594.4,337.0 597.5,330.1 600.6,324.0 603.7,315.1 606.8,299.7 610.0,287.4 613.1,266.5 616.2,252.8 619.3,236.2 622.4,223.3 625.5,213.3 628.6,194.3 631.7,174.3 634.8,143.5 637.9,124.2 641.0,112.1 644.1,97.0 647.2,87.8 650.3,73.1 653.4,63.1 656.5,64.8 659.6,61.5 662.8,66.0 665.9,70.3 669.0,78.3 672.1,85.5 675.2,91.0 678.3,111.6 681.4,130.3 684.5,149.3 687.6,148.8 690.7,145.0 693.8,134.9 696.9,138.1 700.0,135.0 703.1,144.8 706.2,153.2 709.3,165.1 712.4,180.2 715.6,206.7 718.7,255.7 721.8,294.3 724.9,332.2 728.0,347.8 731.1,353.9 734.2,354.0 737.3,354.5 740.4,352.9 743.5,351.0 746.6,350.9 749.7,346.3 752.8,339.5 755.9,325.0 759.0,311.6 762.1,295.9 765.2,290.5 768.4,284.6 771.5,292.7 774.6,298.0 777.7,304.8 780.8,317.9 783.9,327.7 787.0,335.5 790.1,336.4 793.2,332.2 796.3,328.4 799.4,325.5 802.5,326.6 805.6,324.3 808.7,324.5 811.8,322.8 814.9,320.2 818.0,317.4 821.2,319.3 824.3,311.7 827.4,282.4 830.5,222.0 833.6,187.4 836.7,256.2 839.8,341.9 842.9,364.4 846.0,366.0"/><polyline fill="none" stroke="#22c55e" stroke-width="2" points="54.0,366.0 57.1,364.7 60.2,358.6 63.3,356.1 66.4,359.0 69.5,357.2 72.6,355.0 75.7,354.3 78.8,355.4 82.0,355.4 85.1,356.3 88.2,356.7 91.3,356.4 94.4,357.1 97.5,357.2 100.6,356.3 103.7,356.0 106.8,356.0 109.9,355.6 113.0,356.8 116.1,356.7 119.2,354.9 122.3,355.8 125.4,354.5 128.5,353.5 131.6,352.2 134.8,349.9 137.9,349.6 141.0,349.7 144.1,350.4 147.2,350.4 150.3,349.5 153.4,350.1 156.5,350.2 159.6,350.0 162.7,351.0 165.8,352.5 168.9,351.3 172.0,349.8 175.1,352.6 178.2,351.7 181.3,350.5 184.4,350.7 187.6,351.5 190.7,352.8 193.8,351.6 196.9,351.0 200.0,350.2 203.1,349.8 206.2,349.8 209.3,348.4 212.4,346.2 215.5,342.1 218.6,337.1 221.7,328.7 224.8,315.2 227.9,303.5 231.0,291.9 234.1,280.2 237.2,273.7 240.4,270.4 243.5,270.6 246.6,277.5 249.7,284.3 252.8,294.0 255.9,305.1 259.0,316.3 262.1,324.2 265.2,334.7 268.3,342.9 271.4,346.7 274.5,349.5 277.6,352.5 280.7,353.6 283.8,353.9 286.9,353.1 290.0,354.7 293.2,354.5 296.3,354.0 299.4,355.7 302.5,354.2 305.6,354.7 308.7,354.6 311.8,355.0 314.9,354.0 318.0,354.6 321.1,353.2 324.2,353.0 327.3,354.6 330.4,353.4 333.5,353.1 336.6,352.0 339.7,351.2 342.8,351.3 346.0,349.9 349.1,347.6 352.2,345.2 355.3,339.8 358.4,335.5 361.5,329.9 364.6,325.2 367.7,319.1 370.8,315.4 373.9,318.0 377.0,318.3 380.1,319.1 383.2,324.9 386.3,324.5 389.4,326.8 392.5,328.8 395.6,333.8 398.8,337.3 401.9,341.4 405.0,343.8 408.1,342.5 411.2,342.8 414.3,338.5 417.4,331.5 420.5,328.1 423.6,317.8 426.7,314.7 429.8,314.0 432.9,313.8 436.0,314.3 439.1,318.3 442.2,325.3 445.3,329.1 448.4,333.5 451.6,337.7 454.7,342.6 457.8,346.3 460.9,349.8 464.0,351.7 467.1,352.2 470.2,353.7 473.3,353.3 476.4,352.1 479.5,352.6 482.6,351.5 485.7,350.7 488.8,351.6 491.9,350.5 495.0,350.8 498.1,349.6 501.2,348.9 504.4,349.8 507.5,349.0 510.6,349.0 513.7,345.8 516.8,343.9 519.9,343.2 523.0,342.3 526.1,340.5 529.2,338.8 532.3,335.1 535.4,330.8 538.5,324.1 541.6,315.2 544.7,302.6 547.8,289.5 550.9,274.8 554.0,258.6 557.2,239.5 560.3,220.9 563.4,207.0 566.5,194.7 569.6,175.9 572.7,166.0 575.8,144.4 578.9,127.4 582.0,113.7 585.1,108.0 588.2,103.0 591.3,96.7 594.4,87.7 597.5,80.2 600.6,70.6 603.7,64.3 606.8,55.9 610.0,54.0 613.1,66.2 616.2,85.1 619.3,100.6 622.4,123.6 625.5,144.7 628.6,156.5 631.7,183.4 634.8,194.3 637.9,200.9 641.0,201.4 644.1,198.1 647.2,186.9 650.3,181.0 653.4,176.2 656.5,177.4 659.6,188.2 662.8,198.6 665.9,212.9 669.0,230.0 672.1,247.9 675.2,280.8 678.3,305.7 681.4,328.2 684.5,347.7 687.6,357.0 690.7,362.8 693.8,364.6 696.9,365.3 700.0,365.7 703.1,365.8 706.2,365.8 709.3,365.9 712.4,365.8 715.6,365.9 718.7,365.9 721.8,365.6 724.9,365.6 728.0,365.7 731.1,365.7 734.2,365.8 737.3,365.9 740.4,365.8 743.5,365.9 746.6,366.0 749.7,365.9 752.8,366.0 755.9,366.0 759.0,366.0 762.1,366.0 765.2,366.0 768.4,366.0 771.5,366.0 774.6,366.0 777.7,366.0 780.8,366.0 783.9,366.0 787.0,366.0 790.1,366.0 793.2,366.0 796.3,366.0 799.4,366.0 802.5,366.0 805.6,366.0 808.7,366.0 811.8,366.0 814.9,366.0 818.0,366.0 821.2,366.0 824.3,366.0 827.4,366.0 830.5,366.0 833.6,366.0 836.7,366.0 839.8,366.0 842.9,366.0 846.0,366.0"/><polyline fill="none" stroke="#3b82f6" stroke-width="2" points="54.0,365.1 57.1,346.7 60.2,279.2 63.3,187.1 66.4,142.6 69.5,176.6 72.6,237.6 75.7,275.1 78.8,297.2 82.0,313.8 85.1,325.5 88.2,337.8 91.3,341.0 94.4,346.5 97.5,349.8 100.6,348.7 103.7,346.7 106.8,344.1 109.9,335.8 113.0,327.3 116.1,316.3 119.2,306.5 122.3,296.4 125.4,297.8 128.5,302.7 131.6,311.8 134.8,322.5 137.9,332.1 141.0,342.3 144.1,348.0 147.2,352.5 150.3,355.0 153.4,355.5 156.5,356.8 159.6,355.5 162.7,356.7 165.8,356.7 168.9,356.5 172.0,357.7 175.1,356.5 178.2,355.6 181.3,355.4 184.4,354.1 187.6,353.4 190.7,351.4 193.8,347.6 196.9,342.1 200.0,334.3 203.1,321.0 206.2,304.6 209.3,294.1 212.4,290.2 215.5,289.8 218.6,302.5 221.7,322.5 224.8,330.9 227.9,341.7 231.0,348.1 234.1,352.0 237.2,355.2 240.4,354.9 243.5,357.1 246.6,357.5 249.7,358.1 252.8,358.2 255.9,358.3 259.0,359.1 262.1,357.8 265.2,358.2 268.3,358.8 271.4,358.0 274.5,358.9 277.6,358.0 280.7,358.9 283.8,358.5 286.9,358.7 290.0,358.4 293.2,358.8 296.3,359.0 299.4,358.6 302.5,358.6 305.6,358.9 308.7,358.5 311.8,358.1 314.9,359.7 318.0,358.3 321.1,359.9 324.2,357.9 327.3,359.2 330.4,358.5 333.5,358.8 336.6,359.3 339.7,358.8 342.8,357.2 346.0,359.3 349.1,357.2 352.2,358.0 355.3,358.2 358.4,356.7 361.5,357.4 364.6,355.4 367.7,356.8 370.8,356.1 373.9,356.0 377.0,356.0 380.1,354.2 383.2,354.4 386.3,353.4 389.4,353.9 392.5,353.7 395.6,353.5 398.8,350.6 401.9,351.8 405.0,350.8 408.1,352.2 411.2,350.5 414.3,346.8 417.4,345.7 420.5,343.6 423.6,341.9 426.7,337.4 429.8,333.6 432.9,326.7 436.0,320.9 439.1,314.1 442.2,308.9 445.3,306.7 448.4,303.5 451.6,300.0 454.7,296.6 457.8,294.4 460.9,293.3 464.0,293.6 467.1,285.5 470.2,283.1 473.3,276.9 476.4,266.3 479.5,255.4 482.6,246.9 485.7,237.6 488.8,225.8 491.9,210.5 495.0,203.7 498.1,181.7 501.2,168.3 504.4,160.8 507.5,154.1 510.6,144.5 513.7,132.6 516.8,129.3 519.9,129.1 523.0,119.2 526.1,126.6 529.2,123.1 532.3,130.0 535.4,137.7 538.5,146.0 541.6,159.4 544.7,172.1 547.8,180.3 550.9,185.6 554.0,198.4 557.2,200.8 560.3,201.8 563.4,203.5 566.5,206.3 569.6,204.4 572.7,200.7 575.8,197.8 578.9,191.8 582.0,191.6 585.1,182.7 588.2,180.2 591.3,181.1 594.4,192.4 597.5,194.0 600.6,208.7 603.7,212.9 606.8,221.9 610.0,229.7 613.1,240.1 616.2,257.4 619.3,277.5 622.4,298.7 625.5,317.4 628.6,331.7 631.7,345.4 634.8,354.4 637.9,357.9 641.0,361.0 644.1,362.6 647.2,364.5 650.3,364.4 653.4,364.6 656.5,365.2 659.6,365.4 662.8,365.4 665.9,365.7 669.0,365.4 672.1,365.7 675.2,365.8 678.3,365.6 681.4,365.7 684.5,365.8 687.6,366.0 690.7,365.7 693.8,365.8 696.9,365.9 700.0,365.8 703.1,366.0 706.2,365.9 709.3,365.9 712.4,366.0 715.6,365.9 718.7,365.9 721.8,366.0 724.9,365.9 728.0,365.8 731.1,365.9 734.2,365.9 737.3,366.0 740.4,365.9 743.5,365.9 746.6,366.0 749.7,365.9 752.8,365.9 755.9,366.0 759.0,366.0 762.1,365.8 765.2,366.0 768.4,366.0 771.5,366.0 774.6,366.0 777.7,366.0 780.8,366.0 783.9,366.0 787.0,366.0 790.1,366.0 793.2,366.0 796.3,366.0 799.4,366.0 802.5,366.0 805.6,366.0 808.7,366.0 811.8,366.0 814.9,366.0 818.0,366.0 821.2,366.0 824.3,366.0 827.4,366.0 830.5,366.0 833.6,366.0 836.7,366.0 839.8,366.0 842.9,366.0 846.0,366.0"/>
</svg>