<svg xmlns="http://www.w3.org/2000/svg" width="900" height="500" viewBox="0 0 900 500">
<rect width="100%" height="100%" fill="#0f172a"/>
<style>text{font-family:system-ui,sans-serif;fill:#e2e8f0}</style>
<text x="450.0" y="32" text-anchor="middle" font-size="20" font-weight="700">Automatic K analysis — LAB — selected K=4</text>
<line x1="84" y1="428" x2="868" y2="428" stroke="#64748b"/>
<line x1="84" y1="64" x2="84" y2="428" stroke="#64748b"/>
<polyline points="84.0,64.0 214.7,266.6 345.3,332.3 476.0,366.2 606.7,385.3 737.3,413.5 868.0,428.0" fill="none" stroke="#38bdf8" stroke-width="3"/>
<circle cx="84.0" cy="64.0" r="5" fill="#38bdf8"/>
<text x="84.0" y="466" text-anchor="middle" font-size="13">2</text>
<circle cx="214.7" cy="266.6" r="5" fill="#38bdf8"/>
<text x="214.7" y="466" text-anchor="middle" font-size="13">3</text>
<circle cx="345.3" cy="332.3" r="8" fill="#f59e0b"/>
<text x="345.3" y="466" text-anchor="middle" font-size="13">4</text>
<circle cx="476.0" cy="366.2" r="5" fill="#38bdf8"/>
<text x="476.0" y="466" text-anchor="middle" font-size="13">5</text>
<circle cx="606.7" cy="385.3" r="5" fill="#38bdf8"/>
<text x="606.7" y="466" text-anchor="middle" font-size="13">6</text>
<circle cx="737.3" cy="413.5" r="5" fill="#38bdf8"/>
<text x="737.3" y="466" text-anchor="middle" font-size="13">7</text>
<circle cx="868.0" cy="428.0" r="5" fill="#38bdf8"/>
<text x="868.0" y="466" text-anchor="middle" font-size="13">8</text>
<text x="450.0" y="492" text-anchor="middle" font-size="14">Palette size (K)</text>
<text x="20" y="250.0" transform="rotate(-90 20 250.0)" text-anchor="middle" font-size="14">Fit distortion</text>
</svg>